 http://myanimelist.net/anime/8086/Densetsu_no_Yuusha_no_Densetsu

Ryner Lute is a lazy student of the Roland Empire Royal Magician's Academy. One day, the Roland Empire goes to war against their neighboring country Estabul, and Ryner loses his classmates in the war. After the war, Ryner sets out on a journey to search the relics of a "Legendary Hero" at King Sion Astal's command and finds out that a deadly curse is spreading throughout the continent.

awsome anime, a must watch!!!


info of most of the files:
General

Format                           : Matroska
File size                        : 177 MiB
Duration                         : 23mn 50s
Overall bit rate                 : 1 040 Kbps
Encoded date                     : UTC 2010-07-23 18:29:23
Writing application              : mkvmerge v4.0.0 ('The Stars were mine') built on Jun  6 2010 16:18:42
Writing library                  : libebml v1.0.0 + libmatroska v1.0.0

Video
ID                               : 1
Format                           : VP6F
Codec ID                         : VP6F
Duration                         : 24mn 4s
Bit rate                         : 891 Kbps
Width                            : 640 pixels
Height                           : 368 pixels
Display aspect ratio             : 16:9
Frame rate                       : 30.303 fps
Resolution                       : 24 bits
Bits/(Pixel*Frame)               : 0.125
Stream size                      : 153 MiB (87%)

Audio
ID                               : 2
Format                           : MPEG Audio
Format version                   : Version 1
Format profile                   : Layer 3
Codec ID                         : A_MPEG/L3
Codec ID/Hint                    : MP3
Duration                         : 23mn 50s
Bit rate mode                    : Constant
Bit rate                         : 128 Kbps
Channel(s)                       : 2 channels
Sampling rate                    : 44.1 KHz
Resolution                       : 16 bits
Stream size                      : 21.8 MiB (12%)


